# xmcd
#
# Track frame offsets:
#	150
#	12061
#	27122
#	41478
#	58240
#	72727
#	87060
#	101019
#	113082
#	126993
#	143420
#	155402
#	170673
#	186221
#	199576
#	214458
#	232145
#
# Disc length: 3315
#
# Revision: 1
# Processed by: cddbd v1.5.2PL0 Copyright (c) Steve Scherf et al.
# Submitted via: kJams Pro (development) 1.0patch49.66
#
DISCID=f20cf111
DTITLE=Ronnie Milsap - 50 Songs−Ronnie Milsap
DYEAR=1975
DGENRE=Country
TTITLE0=Ronnie Milsap - Pure Love
TTITLE1=Ronnie Milsap - Just In Case
TTITLE2=Ronnie Milsap - I'm A Stand By Your Woman Man
TTITLE3=Ronnie Milsap - Only One Love In My Life
TTITLE4=Ronnie Milsap - That Girl Who Waits On Tables
TTITLE5=Ronnie Milsap - I'd Be A Legend In My Own Time
TTITLE6=Ronnie Milsap - I Hate You
TTITLE7=Ronnie Milsap - Let's Fall Apart (Together)
TTITLE8=Ronnie Milsap - What Goes On When The Sun Goes Down
TTITLE9=Ronnie Milsap - Let's Take The Long Way Around The World
TTITLE10=Ronnie Milsap - Daydreams About Night Things
TTITLE11=Ronnie Milsap - Too Late To Worry, Too Blue To Cry
TTITLE12=Ronnie Milsap - Back On My Mind Again
TTITLE13=Ronnie Milsap - Please Don't Tell Me How The Story Ends
TTITLE14=Ronnie Milsap - Let My Love Be Your Pillow
TTITLE15=Ronnie Milsap - What A Difference You've Made In My Life
TTITLE16=Ronnie Milsap - I Wouldn't Have Missed It For The World
EXTD=
EXTT0=
EXTT1=
EXTT2=
EXTT3=
EXTT4=
EXTT5=
EXTT6=
EXTT7=
EXTT8=
EXTT9=
EXTT10=
EXTT11=
EXTT12=
EXTT13=
EXTT14=
EXTT15=
EXTT16=
PLAYORDER=
